<?xml version="1.0" encoding="UTF-8"?>
<svg version="1.1" xmlns="http://www.w3.org/2000/svg" width="478" height="522">
<path d="M0 0 C4.0473207 1.25875387 7.6884464 2.75628365 11.421875 4.7578125 C12.43765625 5.29664062 13.4534375 5.83546875 14.5 6.390625 C15.5725 6.96296875 16.645 7.5353125 17.75 8.125 C25.0749353 11.99000042 32.3794636 15.75253125 40 19 C50.69312265 23.57265154 60.8904992 29.10476369 71.17333984 34.52148438 C76.73959857 37.43297711 82.36359484 40.22717099 88 43 C86.63555819 46.19512503 85.25419001 47.86063987 82.4375 49.875 C81.72464844 50.38804688 81.01179688 50.90109375 80.27734375 51.4296875 C78.03324407 52.97707699 75.77288161 54.49524996 73.5 56 C72.75363281 56.50273438 72.00726563 57.00546875 71.23828125 57.5234375 C69.7815643 58.48441308 68.29989617 59.4089102 66.79296875 60.2890625 C61.33865821 63.74986807 59.89326381 67.04860224 58.171875 73.1640625 C56.76449588 78.04772075 54.76185811 82.68776554 52.8125 87.375 C52.42562012 88.31335693 52.03874023 89.25171387 51.64013672 90.21850586 C50.0261132 94.12890163 48.40289791 98.03538484 46.77246094 101.93896484 C45.96345591 103.87648972 45.15671667 105.81496229 44.35229492 107.75439453 C43.60510358 109.55573487 42.85308406 111.35508446 42.0949707 113.15185547 C39.23613306 120.05313863 37.22666691 126.76333253 35 134 C57.11 134.33 79.22 134.66 102 135 C102 156.09033825 102 156.09033825 100.875 162.875 C100.74375732 163.69323242 100.61251465 164.51146484 100.47729492 165.35449219 C97.91143564 180.208423 93.2334346 193.89076197 86.01904297 207.10302734 C85.00310842 208.9942136 84.04489249 210.9056405 83.09765625 212.83203125 C73.71809314 231.65392933 58.78838263 248.43399673 42 261 C40.83984375 261.88365234 40.83984375 261.88365234 39.65625 262.78515625 C34.4941003 266.56212911 29.05650509 269.78459261 23.5 272.9375 C22.79270752 273.3396875 22.08541504 273.741875 21.35668945 274.15625 C16.25069669 277 16.25069669 277 14 277 C14 283.93 14 290.86 14 298 C-29.23 298 -72.46 298 -117 298 C-117 291.07 -117 284.14 -117 277 C-118.98 276.34 -120.96 275.68 -123 275 C-134.09052983 269.70755871 -144.20265899 262.91322767 -153.25 254.625 C-153.82347168 254.10083496 -154.39694336 253.57666992 -154.98779297 253.03662109 C-156.368951 251.73603415 -157.6905762 250.37278302 -159 249 C-159 248.34 -159 247.68 -159 247 C-159.89525391 246.58814453 -159.89525391 246.58814453 -160.80859375 246.16796875 C-180.51430472 235.66528144 -193.8298494 202.59098027 -200.25 182.4375 C-201.88741921 176.2548309 -202.87258839 170.01955661 -203.75 163.6875 C-203.94190918 162.33773071 -203.94190918 162.33773071 -204.13769531 160.96069336 C-205.24345392 152.15278095 -205 144.0887692 -205 135 C-168.7 135 -132.4 135 -95 135 C-95 137.64 -95 140.28 -95 143 C-96.01578125 143.13535156 -97.0315625 143.27070313 -98.078125 143.41015625 C-107.66479627 144.84780629 -114.95148125 147.32167496 -123 153 C-123.90298828 153.61875 -123.90298828 153.61875 -124.82421875 154.25 C-135.42087319 162.2600695 -140.66220806 175.29221991 -143.69140625 187.87109375 C-144.15201183 192.54128453 -144.10380101 197.18574669 -144.0625 201.875 C-144.05798828 202.84953125 -144.05347656 203.8240625 -144.04882812 204.828125 C-144.03710906 207.21881434 -144.02070219 209.6093744 -144 212 C-130.30980565 212.40265278 -120.45769529 211.45876639 -108.1875 205.125 C-107.23484253 204.63386719 -107.23484253 204.63386719 -106.26293945 204.1328125 C-99.40711684 200.41686048 -95.06862111 195.03561545 -90.5625 188.8125 C-90.08240479 188.15628662 -89.60230957 187.50007324 -89.10766602 186.82397461 C-85.80881795 182.26316234 -82.8283774 177.60074808 -80.12109375 172.66015625 C-79.75113281 172.11230469 -79.38117188 171.56445312 -79 171 C-78.34 171 -77.68 171 -77 171 C-76.50371094 172.12277344 -76.00742188 173.24554688 -75.49609375 174.40234375 C-67.21711862 192.79230735 -57.59568719 202.7376724 -39 211 C-35.27902999 212.40508954 -33.02299839 213 -29 213 C-23.70742641 196.34256971 -23.12520786 180.38039837 -30 164 C-32.36352277 159.76685854 -35.50022133 156.33253261 -39 153 C-39.86044922 152.17628906 -39.86044922 152.17628906 -40.73828125 151.3359375 C-46.33107205 146.39347121 -51.04568504 144.52034882 -58.3125 143.8125 C-59.42334961 143.6897168 -59.42334961 143.6897168 -60.55664062 143.56445312 C-62.36994923 143.36557412 -64.18484969 143.18130173 -66 143 C-63.32557007 137.18602189 -60.05769886 131.89849677 -56.55859375 126.5559082 C-53.89819997 122.46760421 -51.44051194 118.32169786 -49.0625 114.0625 C-46.39181818 109.28724428 -43.52531475 104.70690951 -40.4375 100.1875 C-35.84340037 93.45584897 -31.66027653 86.50650816 -27.5 79.5 C-22.97738475 71.88326096 -18.37332579 64.38481587 -13.37304688 57.07324219 C-9.80849721 51.82324757 -6.68086728 46.36975356 -3.59375 40.828125 C-2 38 -2 38 0 35 C0.17162025 32.31405085 0.23224552 29.73455099 0.1953125 27.05078125 C0.1924826 26.27816452 0.18965271 25.50554779 0.18673706 24.70951843 C0.17554878 22.24368757 0.15044703 19.77822094 0.125 17.3125 C0.11496843 15.63997921 0.10584289 13.96745272 0.09765625 12.29492188 C0.07561392 8.19647441 0.04109363 4.09829894 0 0 Z M9 14 C8.93997405 18.00172987 8.95586197 21.99815157 9 26 C8.98066406 26.804375 8.96132813 27.60875 8.94140625 28.4375 C8.92275467 30.77577395 8.92275467 30.77577395 10 34 C12.65335453 35.48143124 15.23752199 36.75782723 18 38 C19.61203168 38.77191707 21.22268154 39.5467256 22.83203125 40.32421875 C24.49175817 41.11288332 26.15191871 41.90063595 27.8125 42.6875 C28.65748047 43.09033203 29.50246094 43.49316406 30.37304688 43.90820312 C31.18451172 44.29298828 31.99597656 44.67777344 32.83203125 45.07421875 C33.92608276 45.59375122 33.92608276 45.59375122 35.04223633 46.1237793 C37.14192407 47.1022592 37.14192407 47.1022592 40 48 C39.34 50.64 38.68 53.28 38 56 C30.10135315 53.15130769 22.86336902 49.38019728 15.5144043 45.35400391 C14.71687744 44.92265137 13.91935059 44.49129883 13.09765625 44.046875 C12.02269897 43.45664551 12.02269897 43.45664551 10.92602539 42.85449219 C8.89413835 41.79723183 8.89413835 41.79723183 6 42 C4.70015736 43.40989889 4.70015736 43.40989889 3.625 45.32421875 C3.19703125 46.02353516 2.7690625 46.72285156 2.328125 47.44335938 C1.88984375 48.18392578 1.4515625 48.92449219 1 49.6875 C0.56171875 50.40873047 0.1234375 51.12996094 -0.328125 51.87304688 C-1.56280614 53.90915509 -2.78343525 55.95303101 -4 58 C-4.76376953 59.27037109 -4.76376953 59.27037109 -5.54296875 60.56640625 C-6.71636737 62.52626507 -7.88461811 64.48896325 -9.05078125 66.453125 C-9.80464554 67.71877499 -10.55855265 68.98439949 -11.3125 70.25 C-11.86067383 71.17619141 -11.86067383 71.17619141 -12.41992188 72.12109375 C-14.47044539 75.55634039 -16.59656675 78.91363358 -18.83984375 82.2265625 C-22.53678595 87.72472959 -25.87776103 93.42411384 -29.25 99.125 C-34.24969505 107.5324872 -39.36635406 115.7844092 -44.94921875 123.81640625 C-47.28311264 127.43949867 -49.13268737 131.1178444 -51 135 C-48.88685262 137.11314738 -46.84002874 138.07341068 -44.15039062 139.30786133 C-37.80591486 142.24454506 -32.79948547 144.97406445 -29 151 C-28.49210938 151.78632813 -27.98421875 152.57265625 -27.4609375 153.3828125 C-25.90571164 155.88802854 -24.44470859 158.42981021 -23 161 C-22.61714844 161.62390625 -22.23429688 162.2478125 -21.83984375 162.890625 C-14.10976909 176.41090767 -14.47322748 193.82124747 -18.28637695 208.42993164 C-19.66752007 213.32715177 -21.52248952 217.57587415 -24 222 C-24 222.66 -24 223.32 -24 224 C-41.486287 220.26697244 -54.45615475 215.1753034 -68 203 C-68.51949219 202.53464844 -69.03898437 202.06929687 -69.57421875 201.58984375 C-71.58759468 199.34479169 -73.09343646 196.86901699 -74.6875 194.3125 C-75.62142578 192.82169922 -75.62142578 192.82169922 -76.57421875 191.30078125 C-77.04472656 190.54152344 -77.51523438 189.78226563 -78 189 C-81.26830461 192.16287543 -84.30512125 195.46178121 -87.3125 198.875 C-98.0847686 210.79513328 -111.55449606 220.14796011 -128.16064453 221.12744141 C-135.86558714 221.38914294 -143.38534022 221.24731547 -151 220 C-154.58034038 196.88762413 -153.02309369 176.45382146 -138.95727539 156.95825195 C-135.62559773 152.54025223 -131.92254485 148.84891615 -127.6171875 145.35546875 C-127.08351563 144.90816406 -126.54984375 144.46085938 -126 144 C-126 143.67 -126 143.34 -126 143 C-149.43 143 -172.86 143 -197 143 C-197.0237715 152.73233695 -197.0237715 152.73233695 -195.8125 162.1875 C-195.677229 162.91179199 -195.54195801 163.63608398 -195.40258789 164.38232422 C-190.67592586 188.42585322 -180.4520458 213.06267248 -163.6484375 231.16796875 C-161.77437773 233.25075081 -160.11771144 235.44599522 -158.4375 237.6875 C-155.63391482 241.32223653 -152.65287519 244.23115397 -149 247 C-147.4370315 248.27025709 -145.8745818 249.54115266 -144.3125 250.8125 C-142.54488618 252.21240813 -140.77398945 253.60818004 -139 255 C-138.16597656 255.66386719 -137.33195312 256.32773437 -136.47265625 257.01171875 C-128.85117694 262.84530216 -120.63398323 266.91236449 -112 271 C-111.34 271.33 -110.68 271.66 -110 272 C-109.505 280.415 -109.505 280.415 -109 289 C-71.38 289 -33.76 289 5 289 C5 285.7 5 282.4 5 279 C-19.09 279 -43.18 279 -68 279 C-68 276.36 -68 273.72 -68 271 C-67.07308853 271.0199855 -66.14617706 271.03997101 -65.19117737 271.06056213 C-56.38177067 271.24219279 -47.57300798 271.3785667 -38.76214695 271.46630955 C-34.2340808 271.51293992 -29.7075834 271.57599942 -25.18041992 271.67895508 C-20.79710332 271.77799583 -16.41527824 271.83081309 -12.03092766 271.85389519 C-10.37287897 271.87030564 -8.71489597 271.90234176 -7.05749702 271.95157051 C14.34368817 272.56094773 29.49862882 260.73399395 45 247 C45.98419922 246.17048828 45.98419922 246.17048828 46.98828125 245.32421875 C51.46815312 241.51928049 55.34287131 237.59485399 59 233 C59.72832031 232.10925781 60.45664062 231.21851563 61.20703125 230.30078125 C72.28833216 216.39243979 80.98250739 202.12075724 86 185 C86.34369629 183.8538623 86.34369629 183.8538623 86.69433594 182.68457031 C90.66195477 169.36195563 92.92291336 157.00212629 94 143 C70.24 142.67 46.48 142.34 22 142 C31 120 31 120 34.25 112.0625 C36.07389065 107.50030197 37.69780561 102.9311393 39.1875 98.25 C42.04730609 89.39687091 45.66579426 80.8570735 49.25463867 72.27832031 C49.95617065 70.58980957 49.95617065 70.58980957 50.671875 68.8671875 C51.0956543 67.85769043 51.51943359 66.84819336 51.95605469 65.80810547 C52.92626651 63.19833549 53.54448264 60.7412608 54 58 C54.556875 57.91492188 55.11375 57.82984375 55.6875 57.7421875 C58.70890665 56.77247928 60.56618836 55.15070298 63 53.125 C67.94924554 49.03583676 67.94924554 49.03583676 70.3125 47.3671875 C70.869375 46.91601562 71.42625 46.46484375 72 46 C72 45.34 72 44.68 72 44 C45.04135477 30.78962939 45.04135477 30.78962939 18 17.75 C16.75053589 17.15179443 16.75053589 17.15179443 15.47583008 16.54150391 C12.36273117 14.78553408 12.36273117 14.78553408 9 14 Z " fill="#DDDDDD" transform="translate(289,67)"/>
<path d="M0 0 C3.0625 1.9375 3.0625 1.9375 5 5 C5.77993882 9.73771348 5.68990329 12.96514506 3 17 C0.9765625 17.58203125 0.9765625 17.58203125 -1.375 17.8125 C-2.14585937 17.90144531 -2.91671875 17.99039062 -3.7109375 18.08203125 C-6.37857335 17.98643338 -7.81871405 17.53659477 -10 16 C-10.75 12.375 -10.75 12.375 -11 9 C-12.93897212 12.27924407 -13.29325528 14.85533219 -13.4140625 18.640625 C-13.45273438 19.71054687 -13.49140625 20.78046875 -13.53125 21.8828125 C-13.5621875 22.99398438 -13.593125 24.10515625 -13.625 25.25 C-13.66367188 26.37664062 -13.70234375 27.50328125 -13.7421875 28.6640625 C-13.83637336 31.44254548 -13.92199586 34.22102334 -14 37 C-12.35 37 -10.7 37 -9 37 C-8.67 37.99 -8.34 38.98 -8 40 C-24.66666667 40 -41.33333333 40 -58 40 C-58.99 40.495 -58.99 40.495 -60 41 C-67.39500792 41.68451515 -73.02833164 41.64463095 -79 37 C-80.15927528 33.52217417 -80.11313066 30.81196743 -80.09765625 27.14453125 C-80.0962413 26.48289474 -80.09482635 25.82125824 -80.09336853 25.13957214 C-80.08777996 23.03050172 -80.07522965 20.92153823 -80.0625 18.8125 C-80.05748352 17.38086091 -80.05292087 15.94922015 -80.04882812 14.51757812 C-80.0378143 11.01168412 -80.02055755 7.5058525 -80 4 C-82.31 4 -84.62 4 -87 4 C-87.12890625 4.72703125 -87.2578125 5.4540625 -87.390625 6.203125 C-87.97087995 8.86634642 -88.76433109 11.21311444 -89.75 13.75 C-91.53638105 18.53081834 -92.98882192 23.34391382 -94.375 28.25 C-101.8240044 54.24740319 -101.8240044 54.24740319 -108.875 59.359375 C-111.64855184 60.19551931 -114.10493852 60.26447531 -117 60.25 C-118.546875 60.25773437 -118.546875 60.25773437 -120.125 60.265625 C-122.97555974 60.00225807 -124.62483772 59.56144927 -127 58 C-128.60776409 54.78447181 -128.60485913 51.47794 -128 48 C-125.41832046 44.96272995 -123.87501007 44.12500144 -119.9375 43.5625 C-116.55726577 44.06593914 -115.16777885 44.33196449 -113 47 C-112.66313169 49.75471344 -112.81680758 52.2063156 -113 55 C-113.99 55 -114.98 55 -116 55 C-116 55.66 -116 56.32 -116 57 C-110.76074266 54.90429706 -109.28887991 51.2092636 -107.015625 46.375 C-105.92890954 43.92381849 -105.92890954 43.92381849 -105 41 C-106.62035156 40.81050781 -106.62035156 40.81050781 -108.2734375 40.6171875 C-110.85910715 39.87154648 -111.76137049 39.40148758 -113.15332031 37.05957031 C-114.1098399 34.43889647 -114.89150201 31.81665293 -115.625 29.125 C-116.19828508 27.21377898 -116.77509644 25.30361207 -117.35546875 23.39453125 C-117.63052246 22.46850098 -117.90557617 21.5424707 -118.18896484 20.58837891 C-119.5393758 16.27860859 -121.31708571 12.20693598 -123.15234375 8.08203125 C-124 6 -124 6 -124 4 C-125.32 4 -126.64 4 -128 4 C-128 3.01 -128 2.02 -128 1 C-119.42 1 -110.84 1 -102 1 C-102 1.99 -102 2.98 -102 4 C-102.99 4.33 -103.98 4.66 -105 5 C-103.02 10.94 -101.04 16.88 -99 23 C-97.3354745 20.50321175 -96.55263843 18.97578432 -95.7109375 16.20703125 C-95.38222656 15.1387207 -95.38222656 15.1387207 -95.046875 14.04882812 C-94.82515625 13.31083984 -94.6034375 12.57285156 -94.375 11.8125 C-94.14554688 11.06291016 -93.91609375 10.31332031 -93.6796875 9.54101562 C-93.11540619 7.69534551 -92.55711784 5.84784504 -92 4 C-93.32 4 -94.64 4 -96 4 C-96 3.01 -96 2.02 -96 1 C-85.11 1 -74.22 1 -63 1 C-62.67 12.22 -62.34 23.44 -62 35 C-61.01 34.67 -60.02 34.34 -59 34 C-57.60439955 31.20879909 -57.78191712 28.79794308 -57.68359375 25.6796875 C-57.64169922 24.42285156 -57.59980469 23.16601562 -57.55664062 21.87109375 C-57.51732422 20.55238281 -57.47800781 19.23367188 -57.4375 17.875 C-57.39430488 16.53514249 -57.35069027 15.19529844 -57.30664062 13.85546875 C-57.20029019 10.57042185 -57.09826192 7.28529719 -57 4 C-58.32 4 -59.64 4 -61 4 C-61 3.01 -61 2.02 -61 1 C-54.07 1 -47.14 1 -40 1 C-40 12.88 -40 24.76 -40 37 C-37.03 37 -34.06 37 -31 37 C-31 26.11 -31 15.22 -31 4 C-32.65 4 -34.3 4 -36 4 C-36 3.01 -36 2.02 -36 1 C-27.66666667 1 -19.33333333 1 -11 1 C-7.50797535 -0.74601232 -3.81017721 -0.55838804 0 0 Z M-9 5 C-9.33 5.66 -9.66 6.32 -10 7 C-9.01 7 -8.02 7 -7 7 C-7 6.34 -7 5.68 -7 5 C-7.66 5 -8.32 5 -9 5 Z " fill="#EAEAEA" transform="translate(267,401)"/>
<path d="M0 0 C14.52 0 29.04 0 44 0 C44.495 8.91 44.495 8.91 45 18 C43.35 18 41.7 18 40 18 C39.773125 17.13375 39.54625 16.2675 39.3125 15.375 C37.70689475 11.24630079 36.28237567 9.01442663 33 6 C29.37 5.01 25.74 4.02 22 3 C22 11.25 22 19.5 22 28 C28.5528038 26.74060547 28.5528038 26.74060547 30.8125 24.1875 C32.08332401 21.84650841 33.09558426 19.5045359 34 17 C35.32 17 36.64 17 38 17 C38 25.58 38 34.16 38 43 C36.68 43 35.36 43 34 43 C33.81824219 42.44570313 33.63648438 41.89140625 33.44921875 41.3203125 C33.19785156 40.59585938 32.94648438 39.87140625 32.6875 39.125 C32.44386719 38.40570313 32.20023437 37.68640625 31.94921875 36.9453125 C31.03664453 34.66005095 31.03664453 34.66005095 28 33 C26.02 32.67 24.04 32.34 22 32 C22 39.26 22 46.52 22 54 C25.3 54 28.6 54 32 54 C32.33 54.99 32.66 55.98 33 57 C22.11 57 11.22 57 0 57 C0.33 56.01 0.66 55.02 1 54 C1.99 54 2.98 54 4 54 C4 37.17 4 20.34 4 3 C2.68 3 1.36 3 0 3 C0 2.01 0 1.02 0 0 Z " fill="#EFEFEF" transform="translate(286,384)"/>
<path d="M0 0 C2.97 0 5.94 0 9 0 C14.26270174 13.40289962 19.39219367 26.83752596 24.125 40.4375 C24.51486084 41.5497998 24.90472168 42.66209961 25.30639648 43.80810547 C25.66161377 44.8395166 26.01683105 45.87092773 26.3828125 46.93359375 C26.69621582 47.84165771 27.00961914 48.74972168 27.33251953 49.68530273 C28 52 28 52 28 55 C29.65 55 31.3 55 33 55 C33 55.99 33 56.98 33 58 C23.43 58 13.86 58 4 58 C4.33 57.01 4.66 56.02 5 55 C6.485 54.505 6.485 54.505 8 54 C7.71125 53.15695312 7.4225 52.31390625 7.125 51.4453125 C6.75375 50.34960938 6.3825 49.25390625 6 48.125 C5.62875 47.03445313 5.2575 45.94390625 4.875 44.8203125 C4 42 4 42 4 40 C-0.62 40 -5.24 40 -10 40 C-10.495 42.475 -10.495 42.475 -11 45 C-11.49474397 46.61240394 -12.01488607 48.21727681 -12.5625 49.8125 C-12.83191406 50.60269531 -13.10132812 51.39289063 -13.37890625 52.20703125 C-13.68634766 53.09455078 -13.68634766 53.09455078 -14 54 C-12.68 54.33 -11.36 54.66 -10 55 C-10 55.99 -10 56.98 -10 58 C-14.62 58 -19.24 58 -24 58 C-24 57.01 -24 56.02 -24 55 C-22.68 55 -21.36 55 -20 55 C-19.88930176 54.32324219 -19.77860352 53.64648438 -19.66455078 52.94921875 C-18.87360093 49.43905189 -17.65812287 46.16101402 -16.3671875 42.8125 C-16.10316132 42.11833984 -15.83913513 41.42417969 -15.56710815 40.70898438 C-14.71501732 38.47125953 -13.85752643 36.23564672 -13 34 C-12.42962401 32.50405452 -11.85963674 31.00796076 -11.29003906 29.51171875 C-9.57345629 25.00585662 -7.84967181 20.50277082 -6.125 16 C-5.52599264 14.4349146 -4.9270341 12.86981051 -4.328125 11.3046875 C-2.88597612 7.53624393 -1.44317834 3.76804944 0 0 Z M-3 22 C-4.65 26.62 -6.3 31.24 -8 36 C-4.7 36 -1.4 36 2 36 C1.69024532 34.22868439 1.37709575 32.45796222 1.0625 30.6875 C0.88847656 29.70136719 0.71445313 28.71523438 0.53515625 27.69921875 C0.04253153 24.91810787 0.04253153 24.91810787 -1 22 C-1.66 22 -2.32 22 -3 22 Z " fill="#EEEEEE" transform="translate(108,383)"/>
<path d="M0 0 C8.58 0 17.16 0 26 0 C26 0.99 26 1.98 26 3 C25.01 3.33 24.02 3.66 23 4 C24.98 9.94 26.96 15.88 29 22 C31.1491917 18.77621244 32.024994 16.01585352 33.125 12.3125 C33.47820312 11.13300781 33.83140625 9.95351563 34.1953125 8.73828125 C34.46085937 7.83464844 34.72640625 6.93101562 35 6 C35.99 6.33 36.98 6.66 38 7 C38.66 5.35 39.32 3.7 40 2 C42.64 2 45.28 2 48 2 C48 2.33 48 2.66 48 3 C45.69 3 43.38 3 41 3 C40.87109375 3.72703125 40.7421875 4.4540625 40.609375 5.203125 C40.02912005 7.86634642 39.23566891 10.21311444 38.25 12.75 C36.46361895 17.53081834 35.01117808 22.34391382 33.625 27.25 C26.1759956 53.24740319 26.1759956 53.24740319 19.125 58.359375 C16.35144816 59.19551931 13.89506148 59.26447531 11 59.25 C9.453125 59.25773437 9.453125 59.25773437 7.875 59.265625 C5.02444026 59.00225807 3.37516228 58.56144927 1 57 C-0.60776409 53.78447181 -0.60485913 50.47794 0 47 C2.58167954 43.96272995 4.12498993 43.12500144 8.0625 42.5625 C11.44273423 43.06593914 12.83222115 43.33196449 15 46 C15.33686831 48.75471344 15.18319242 51.2063156 15 54 C14.01 54 13.02 54 12 54 C12 54.66 12 55.32 12 56 C17.23925734 53.90429706 18.71112009 50.2092636 20.984375 45.375 C22.07109046 42.92381849 22.07109046 42.92381849 23 40 C21.37964844 39.81050781 21.37964844 39.81050781 19.7265625 39.6171875 C17.14089285 38.87154648 16.23862951 38.40148758 14.84667969 36.05957031 C13.8901601 33.43889647 13.10849799 30.81665293 12.375 28.125 C11.80171492 26.21377898 11.22490356 24.30361207 10.64453125 22.39453125 C10.36947754 21.46850098 10.09442383 20.5424707 9.81103516 19.58837891 C8.4606242 15.27860859 6.68291429 11.20693598 4.84765625 7.08203125 C4 5 4 5 4 3 C2.68 3 1.36 3 0 3 C0 2.01 0 1.02 0 0 Z " fill="#E3E3E3" transform="translate(139,402)"/>
<path d="M0 0 C3.0625 1.9375 3.0625 1.9375 5 5 C5.77993882 9.73771348 5.68990329 12.96514506 3 17 C0.9765625 17.58203125 0.9765625 17.58203125 -1.375 17.8125 C-2.14585937 17.90144531 -2.91671875 17.99039062 -3.7109375 18.08203125 C-6.37857335 17.98643338 -7.81871405 17.53659477 -10 16 C-10.75 12.375 -10.75 12.375 -11 9 C-12.93897212 12.27924407 -13.29325528 14.85533219 -13.4140625 18.640625 C-13.45273438 19.71054687 -13.49140625 20.78046875 -13.53125 21.8828125 C-13.57765625 23.54957031 -13.57765625 23.54957031 -13.625 25.25 C-13.66367188 26.37664062 -13.70234375 27.50328125 -13.7421875 28.6640625 C-13.83637336 31.44254548 -13.92199586 34.22102334 -14 37 C-12.35 37 -10.7 37 -9 37 C-8.67 37.99 -8.34 38.98 -8 40 C-23.84 40 -39.68 40 -56 40 C-56.495 38.515 -56.495 38.515 -57 37 C-56.01 37.33 -55.02 37.66 -54 38 C-49.71 38 -45.42 38 -41 38 C-41 26.12 -41 14.24 -41 2 C-47.6 2 -54.2 2 -61 2 C-61 1.67 -61 1.34 -61 1 C-54.07 1 -47.14 1 -40 1 C-40 12.88 -40 24.76 -40 37 C-37.03 37 -34.06 37 -31 37 C-31 26.11 -31 15.22 -31 4 C-32.65 4 -34.3 4 -36 4 C-36 3.01 -36 2.02 -36 1 C-27.66666667 1 -19.33333333 1 -11 1 C-7.50797535 -0.74601232 -3.81017721 -0.55838804 0 0 Z M-9 5 C-9.33 5.66 -9.66 6.32 -10 7 C-9.01 7 -8.02 7 -7 7 C-7 6.34 -7 5.68 -7 5 C-7.66 5 -8.32 5 -9 5 Z " fill="#E4E4E4" transform="translate(267,401)"/>
<path d="M0 0 C0 4.62 0 9.24 0 14 C3.63 14 7.26 14 11 14 C11 14.99 11 15.98 11 17 C7.37 17 3.74 17 0 17 C0.1183509 21.07530467 0.24260624 25.15038235 0.37231445 29.2253418 C0.41560218 30.61135983 0.45728164 31.99742906 0.49731445 33.38354492 C0.55516584 35.37691798 0.61929776 37.37010565 0.68359375 39.36328125 C0.72025146 40.56251221 0.75690918 41.76174316 0.79467773 42.99731445 C0.87733025 46.04994349 0.87733025 46.04994349 2 49 C5.29148243 47.86500606 5.9959869 47.00716624 7.75 43.875 C8.1625 42.92625 8.575 41.9775 9 41 C9.99 41 10.98 41 12 41 C11.51094891 48.33576642 11.51094891 48.33576642 9.125 51.4375 C3.88914202 55.28739558 -2.79851975 54.41901894 -9 54 C-12.71928729 52.80226341 -14.33910938 52.27604042 -16.13232422 48.8137207 C-17.16406484 45.46796645 -17.22615202 42.66825412 -17.1953125 39.16796875 C-17.18886719 37.87568359 -17.18242187 36.58339844 -17.17578125 35.25195312 C-17.15907327 33.8971327 -17.14214342 32.54231499 -17.125 31.1875 C-17.11496003 29.81315749 -17.10583596 28.43880797 -17.09765625 27.06445312 C-17.07411242 23.70945683 -17.04122567 20.35481801 -17 17 C-18.32 17 -19.64 17 -21 17 C-21 16.01 -21 15.02 -21 14 C-19.68 14 -18.36 14 -17 14 C-17 10.7 -17 7.4 -17 4 C-5.17391304 0 -5.17391304 0 0 0 Z " fill="#ECECEC" transform="translate(379,388)"/>
<path d="M0 0 C7.26 0 14.52 0 22 0 C22 11.88 22 23.76 22 36 C23.65 36 25.3 36 27 36 C27 36.99 27 37.98 27 39 C18.09 39 9.18 39 0 39 C0.33 38.01 0.66 37.02 1 36 C2.32 36 3.64 36 5 36 C5 25.11 5 14.22 5 3 C3.35 3 1.7 3 0 3 C0 2.01 0 1.02 0 0 Z " fill="#ECECEC" transform="translate(332,402)"/>
<path d="M0 0 C6.6 0 13.2 0 20 0 C20 11.88 20 23.76 20 36 C22.31 36 24.62 36 27 36 C27 36.33 27 36.66 27 37 C23.72924117 37.0580476 20.45861476 37.09361165 17.1875 37.125 C16.25873047 37.14175781 15.32996094 37.15851563 14.37304688 37.17578125 C13.48037109 37.18222656 12.58769531 37.18867188 11.66796875 37.1953125 C10.84578857 37.20578613 10.0236084 37.21625977 9.17651367 37.22705078 C7 37 7 37 4 35 C3.67 35.99 3.34 36.98 3 38 C0.23547967 39.38226016 -2.0461363 39.09525387 -5.125 39.0625 C-6.22070312 39.05347656 -7.31640625 39.04445313 -8.4453125 39.03515625 C-9.28835937 39.02355469 -10.13140625 39.01195312 -11 39 C-11 38.67 -11 38.34 -11 38 C-7.37 38 -3.74 38 0 38 C0 37.34 0 36.68 0 36 C-0.66 35.67 -1.32 35.34 -2 35 C-1 33 -1 33 2 32 C3.39560045 29.20879909 3.21808288 26.79794308 3.31640625 23.6796875 C3.35830078 22.42285156 3.40019531 21.16601562 3.44335938 19.87109375 C3.48267578 18.55238281 3.52199219 17.23367188 3.5625 15.875 C3.60569512 14.53514249 3.64930973 13.19529844 3.69335938 11.85546875 C3.79970981 8.57042185 3.90173808 5.28529719 4 2 C2.68 2 1.36 2 0 2 C0 1.34 0 0.68 0 0 Z " fill="#F9F9F9" transform="translate(206,403)"/>
<path d="M0 0 C3.0625 1.9375 3.0625 1.9375 5 5 C5.77993882 9.73771348 5.68990329 12.96514506 3 17 C0.9765625 17.58203125 0.9765625 17.58203125 -1.375 17.8125 C-2.14585937 17.90144531 -2.91671875 17.99039062 -3.7109375 18.08203125 C-6.37857335 17.98643338 -7.81871405 17.53659477 -10 16 C-10.75 12.375 -10.75 12.375 -11 9 C-11.99 10.65 -12.98 12.3 -14 14 C-16.49803145 9.47231799 -16.04332768 7.21663841 -15 2 C-21.27 2 -27.54 2 -34 2 C-34 1.67 -34 1.34 -34 1 C-26.33333333 1 -18.66666667 1 -11 1 C-7.50797535 -0.74601232 -3.81017721 -0.55838804 0 0 Z M-9 5 C-9.33 5.66 -9.66 6.32 -10 7 C-9.01 7 -8.02 7 -7 7 C-7 6.34 -7 5.68 -7 5 C-7.66 5 -8.32 5 -9 5 Z " fill="#E0E0E0" transform="translate(267,401)"/>
<path d="M0 0 C1.32 0.66 2.64 1.32 4 2 C3.53199487 6.99205475 1.13712435 11.16949507 -2 15 C-5.26021329 17.22319555 -8.11393475 17.26943033 -12 17.25 C-13.546875 17.25773437 -13.546875 17.25773437 -15.125 17.265625 C-17.97555974 17.00225807 -19.62483772 16.56144927 -22 15 C-23.60776409 11.78447181 -23.60485913 8.47794 -23 5 C-20.41832046 1.96272995 -18.87501007 1.12500144 -14.9375 0.5625 C-11.55726577 1.06593914 -10.16777885 1.33196449 -8 4 C-7.66313169 6.75471344 -7.81680758 9.2063156 -8 12 C-8.99 12 -9.98 12 -11 12 C-11 12.66 -11 13.32 -11 14 C-6.61709977 11.81228319 -4.88404737 9.65451224 -2.6875 5.3125 C-1.91986328 3.82169922 -1.91986328 3.82169922 -1.13671875 2.30078125 C-0.76160156 1.54152344 -0.38648438 0.78226562 0 0 Z " fill="#DDDDDD" transform="translate(162,444)"/>
<path d="M0 0 C14.52 0 29.04 0 44 0 C44.495 8.91 44.495 8.91 45 18 C43.35 18 41.7 18 40 18 C39.773125 17.13375 39.54625 16.2675 39.3125 15.375 C37.81310989 11.51942543 36.32949466 8.48612046 33 6 C29.39707998 4.64509909 25.77104859 3.75288886 22 3 C22.99 2.67 23.98 2.34 25 2 C18.4 2 11.8 2 5 2 C5 19.49 5 36.98 5 55 C3.68 54.67 2.36 54.34 1 54 C1.99 54 2.98 54 4 54 C4 37.17 4 20.34 4 3 C2.68 3 1.36 3 0 3 C0 2.01 0 1.02 0 0 Z " fill="#A9A9A9" transform="translate(286,384)"/>
<path d="M0 0 C4.6 2.2 4.6 2.2 6 5 C6.25554911 8.44991293 6.34160241 11.13460723 5.0625 14.375 C1.74807861 16.98636231 -1.86433059 17.08706672 -6 17 C-10.23529412 15.76470588 -10.23529412 15.76470588 -12 14 C-12.4312035 10.61813257 -12.46728113 7.37838883 -12 4 C-8.58749988 -0.34318197 -5.32994694 -0.66624337 0 0 Z " fill="#ECECEC" transform="translate(349,381)"/>
<path d="M0 0 C4 4.625 4 4.625 4 8 C3.34 8 2.68 8 2 8 C1.79503906 8.77085937 1.59007813 9.54171875 1.37890625 10.3359375 C1.10949219 11.33882813 0.84007813 12.34171875 0.5625 13.375 C0.29566406 14.37273437 0.02882813 15.37046875 -0.24609375 16.3984375 C-1 19 -1 19 -2 21 C0.97 21.33 3.94 21.66 7 22 C7.33 21.01 7.66 20.02 8 19 C8.33 20.32 8.66 21.64 9 23 C3.66666667 23 -1.66666667 23 -7 23 C-7.66 24.98 -8.32 26.96 -9 29 C-8.01 28.67 -7.02 28.34 -6 28 C-6 27.01 -6 26.02 -6 25 C-0.72 25 4.56 25 10 25 C9.67 25.99 9.34 26.98 9 28 C9 27.34 9 26.68 9 26 C4.38 26 -0.24 26 -5 26 C-5.33 27.65 -5.66 29.3 -6 31 C-6.49474397 32.61240394 -7.01488607 34.21727681 -7.5625 35.8125 C-7.83191406 36.60269531 -8.10132812 37.39289063 -8.37890625 38.20703125 C-8.68634766 39.09455078 -8.68634766 39.09455078 -9 40 C-7.68 40.33 -6.36 40.66 -5 41 C-5 41.99 -5 42.98 -5 44 C-9.62 44 -14.24 44 -19 44 C-19 43.01 -19 42.02 -19 41 C-17.68 41 -16.36 41 -15 41 C-14.88785156 40.32066406 -14.77570313 39.64132812 -14.66015625 38.94140625 C-13.88316803 35.479441 -12.70442858 32.24195467 -11.4375 28.9375 C-11.05247314 27.92139648 -11.05247314 27.92139648 -10.65966797 26.88476562 C-7.22407533 17.87722952 -3.61116155 8.93824554 0 0 Z " fill="#9C9C9C" transform="translate(103,397)"/>
<path d="M0 0 C1.32 0.66 2.64 1.32 4 2 C3.52824682 7.03203394 1.23388741 11.19291033 -2 15 C-5.3125 16.5 -5.3125 16.5 -8 17 C-8 16.34 -8 15.68 -8 15 C-8.66 14.67 -9.32 14.34 -10 14 C-9.278125 13.54625 -8.55625 13.0925 -7.8125 12.625 C-3.9386002 9.00936019 -2.14656056 4.78637334 0 0 Z " fill="#B0B0B0" transform="translate(162,444)"/>
<path d="M0 0 C0.99 0.66 1.98 1.32 3 2 C2.67 3.98 2.34 5.96 2 8 C3.32 8.33 4.64 8.66 6 9 C6 9.99 6 10.98 6 12 C1.38 12 -3.24 12 -8 12 C-8 11.01 -8 10.02 -8 9 C-6.68 9 -5.36 9 -4 9 C-3.855625 8.236875 -3.71125 7.47375 -3.5625 6.6875 C-3 4 -3 4 -2 1 C-1.34 0.67 -0.68 0.34 0 0 Z " fill="#BABABA" transform="translate(92,429)"/>
<path d="M0 0 C2.64 0 5.28 0 8 0 C8 0.33 8 0.66 8 1 C5.69 1 3.38 1 1 1 C0.87625 1.7115625 0.7525 2.423125 0.625 3.15625 C-0.2246354 7.02209105 -1.65242697 10.59017648 -3.0625 14.28125 C-3.94829491 16.85005523 -4.53505434 19.32656248 -5 22 C-6.32 21.34 -7.64 20.68 -9 20 C-8.27275406 14.47293087 -6.66554027 9.30039859 -5 4 C-4.01 4.33 -3.02 4.66 -2 5 C-1.34 3.35 -0.68 1.7 0 0 Z " fill="#C5C5C5" transform="translate(179,404)"/>
<path d="M0 0 C4 4.625 4 4.625 4 8 C3.34 8 2.68 8 2 8 C1.80664062 8.77085937 1.61328125 9.54171875 1.4140625 10.3359375 C1.15367188 11.33882813 0.89328125 12.34171875 0.625 13.375 C0.36976562 14.37273437 0.11453125 15.37046875 -0.1484375 16.3984375 C-1 19 -1 19 -3 21 C-2.125 15.25 -2.125 15.25 -1 13 C-2.98 13.99 -2.98 13.99 -5 15 C-4.37321829 11.33827525 -3.35548154 8.1181005 -1.9375 4.6875 C-1.39416016 3.36298828 -1.39416016 3.36298828 -0.83984375 2.01171875 C-0.56269531 1.34785156 -0.28554687 0.68398438 0 0 Z " fill="#AFAFAF" transform="translate(103,397)"/>
<path d="M0 0 C23 0 23 0 25 1 C24.67 1.66 24.34 2.32 24 3 C24.99 3.33 25.98 3.66 27 4 C26.21625 4.7425 25.4325 5.485 24.625 6.25 C22.43495469 8.54433318 21.17268614 10.12158858 20 13 C17.50196855 8.47231799 17.95667232 6.21663841 19 1 C12.73 1 6.46 1 0 1 C0 0.67 0 0.34 0 0 Z " fill="#8E8E8E" transform="translate(233,402)"/>
<path d="M0 0 C0.99 0 1.98 0 3 0 C3 0.66 3 1.32 3 2 C6.96 2 10.92 2 15 2 C15.33 2.66 15.66 3.32 16 4 C11.05 4 6.1 4 1 4 C1 4.99 1 5.98 1 7 C-0.98 7.99 -0.98 7.99 -3 9 C-2.01 6.03 -1.02 3.06 0 0 Z " fill="#FBFBFB" transform="translate(96,418)"/>
<path d="M0 0 C0.66 0.66 1.32 1.32 2 2 C4.99384983 2.17283478 7.88393688 2.23196807 10.875 2.1875 C12.09896484 2.1865332 12.09896484 2.1865332 13.34765625 2.18554688 C17.08610129 2.15810315 20.38339412 2.02102151 24 1 C24 1.99 24 2.98 24 4 C14.43 4 4.86 4 -5 4 C-4.67 3.01 -4.34 2.02 -4 1 C-2.0625 0.1875 -2.0625 0.1875 0 0 Z " fill="#BBBBBB" transform="translate(117,437)"/>
<path d="M0 0 C0.99 0 1.98 0 3 0 C2.50769231 7.50769231 2.50769231 7.50769231 -0.0625 10 C-1.0215625 10.495 -1.0215625 10.495 -2 11 C-2.99 10.01 -3.98 9.02 -5 8 C-4.54625 7.608125 -4.0925 7.21625 -3.625 6.8125 C-1.72357081 4.69167513 -0.93795972 2.66957765 0 0 Z " fill="#CACACA" transform="translate(388,429)"/>
<path d="M0 0 C5.28 0.33 10.56 0.66 16 1 C16 1.33 16 1.66 16 2 C13.36 2 10.72 2 8 2 C7.67 3.65 7.34 5.3 7 7 C6.01 7 5.02 7 4 7 C4 5.68 4 4.36 4 3 C2.68 3 1.36 3 0 3 C0 2.01 0 1.02 0 0 Z " fill="#E2E2E2" transform="translate(171,402)"/>
<path d="M0 0 C0 0.99 0 1.98 0 3 C-8.91 3 -17.82 3 -27 3 C-26.67 2.34 -26.34 1.68 -26 1 C-25.37432129 1.00523682 -24.74864258 1.01047363 -24.10400391 1.01586914 C-21.27767943 1.03661618 -18.45137095 1.04965286 -15.625 1.0625 C-14.64015625 1.07087891 -13.6553125 1.07925781 -12.640625 1.08789062 C-11.69960938 1.09111328 -10.75859375 1.09433594 -9.7890625 1.09765625 C-8.91975098 1.10289307 -8.05043945 1.10812988 -7.15478516 1.11352539 C-4.41220432 0.96903184 -2.85913365 0 0 0 Z " fill="#D3D3D3" transform="translate(359,438)"/>
<path d="M0 0 C1 3 1 3 1 6 C-0.11328125 7.67578125 -0.11328125 7.67578125 -2 9 C-4.91796875 9.29296875 -4.91796875 9.29296875 -8.1875 9.1875 C-9.27417969 9.16042969 -10.36085937 9.13335937 -11.48046875 9.10546875 C-12.72763672 9.05326172 -12.72763672 9.05326172 -14 9 C-14 8.67 -14 8.34 -14 8 C-10.37 8 -6.74 8 -3 8 C-3 7.34 -3 6.68 -3 6 C-3.66 5.67 -4.32 5.34 -5 5 C-4 3 -4 3 -1 2 C-0.67 1.34 -0.34 0.68 0 0 Z " fill="#BEBEBE" transform="translate(209,433)"/>
<path d="M0 0 C0.33 0 0.66 0 1 0 C1.33 6.27 1.66 12.54 2 19 C1.01 19 0.02 19 -1 19 C-1.33 17.35 -1.66 15.7 -2 14 C-1.67 14 -1.34 14 -1 14 C-0.67 9.38 -0.34 4.76 0 0 Z " fill="#E0E0E0" transform="translate(321,408)"/>
<path d="M0 0 C-1.875 3.875 -1.875 3.875 -3 5 C-3.04320247 7.33293334 -3.04022391 9.6670134 -3 12 C-3 12.99 -3 13.98 -3 15 C-5.51012963 12.48987037 -5.29721609 11.53194763 -5.3125 8.0625 C-5.32925781 7.18722656 -5.34601563 6.31195313 -5.36328125 5.41015625 C-5 3 -5 3 -3.60546875 1.18359375 C-2 0 -2 0 0 0 Z " fill="#858585" transform="translate(342,382)"/>
<path d="M0 0 C4 4.625 4 4.625 4 8 C3.34 8 2.68 8 2 8 C2 7.01 2 6.02 2 5 C1.01 5 0.02 5 -1 5 C-1.33 6.65 -1.66 8.3 -2 10 C-3.39195915 5.82412255 -1.82323219 3.86525224 0 0 Z " fill="#9E9E9E" transform="translate(103,397)"/>
<path d="M0 0 C1.98 0.99 1.98 0.99 4 2 C3.01 2.495 3.01 2.495 2 3 C1.5316735 5.58605332 1.5316735 5.58605332 1.375 8.5625 C1.30023438 9.57441406 1.22546875 10.58632812 1.1484375 11.62890625 C1.09945313 12.41136719 1.05046875 13.19382812 1 14 C0.67 14 0.34 14 0 14 C0 9.38 0 4.76 0 0 Z " fill="#565656" transform="translate(289,67)"/>
<path d="M0 0 C0.66 0.99 1.32 1.98 2 3 C-0.31 3.33 -2.62 3.66 -5 4 C-4.67 3.01 -4.34 2.02 -4 1 C-1.9375 0.3125 -1.9375 0.3125 0 0 Z " fill="#929292" transform="translate(117,437)"/>
<path d="M0 0 C0.99 0 1.98 0 3 0 C2.67 2.64 2.34 5.28 2 8 C0.23537317 4.91190305 0 3.76687864 0 0 Z " fill="#989898" transform="translate(388,429)"/>
</svg>
